# xmcd
#
# Track frame offsets: 
#        150
#        22213
#        69120
#        83973
#        132693
#        176406
#        185411
#        214076
#        240574
#        254399
#
# Disc length: 3655 seconds
#
# Revision: 3
# Processed by: cddbd v1.5.2PL0 Copyright (c) Steve Scherf et al.
# Submitted via: ExactAudioCopyFreeDBPlugin 1.0
#
DISCID=8c0e450a
DTITLE=The Rolling Stones and Muddy Waters - 2012 - Checkerboard Lounge 
DTITLE=Live Chicago 1981 Cd 2
DYEAR=2012
DGENRE=Blues
TTITLE0=Long Distance Call
TTITLE1=Mannish Boy
TTITLE2=Got My Mojo Workin'
TTITLE3=Next Time You See Me
TTITLE4=One Eyed Woman
TTITLE5=Baby Please Don't Go (Instrumental)
TTITLE6=Clouds In My Heart
TTITLE7=Champagne And Reefer
TTITLE8=Instrumental 1
TTITLE9=Instrumental 2
EXTD=YEAR: 2012
EXTT0=
EXTT1=
EXTT2=
EXTT3=
EXTT4=
EXTT5=
EXTT6=
EXTT7=
EXTT8=
EXTT9=
PLAYORDER=
